<svg xmlns="http://www.w3.org/2000/svg" xmlns:xlink="http://www.w3.org/1999/xlink" width="500" zoomAndPan="magnify" viewBox="0 0 375 374.999991" height="500" preserveAspectRatio="xMidYMid meet" version="1.0"><defs><g/></defs><g fill="rgb(100%, 100%, 100%)" fill-opacity="1"><g transform="translate(25.959435, 238.764872)"><g><path d="M 10.203125 0 L 10.203125 -94.453125 L 35.859375 -94.453125 L 35.859375 0 Z M 10.203125 0 "/></g></g></g><g fill="rgb(100%, 100%, 100%)" fill-opacity="1"><g transform="translate(72.022962, 238.764872)"><g><path d="M 63.25 -94.453125 L 91.8125 -94.453125 L 60.859375 0 L 30.8125 0 L 0 -94.453125 L 28.6875 -94.453125 L 41.546875 -46.578125 C 44.210938 -35.941406 45.675781 -28.535156 45.9375 -24.359375 C 46.238281 -27.367188 46.835938 -31.132812 47.734375 -35.65625 C 48.640625 -40.1875 49.441406 -43.742188 50.140625 -46.328125 Z M 63.25 -94.453125 "/></g></g></g><path stroke-linecap="butt" transform="matrix(1.025298, 0, 0, 1.025298, 178.232321, 135.648857)" fill="none" stroke-linejoin="miter" d="M 39.830369 100.999204 L 36.412917 94.1643 L 36.047169 94.1643 C 33.646952 97.139807 31.201016 99.178087 28.709363 100.271519 C 26.217709 101.364951 22.99837 101.909762 19.047536 101.909762 C 14.186144 101.909762 10.361036 100.454393 7.564592 97.536033 C 4.768149 94.621484 3.373737 90.518256 3.373737 85.233968 C 3.373737 79.732518 5.286291 75.640719 9.115209 72.950952 C 12.944127 70.261185 18.487485 68.752477 25.749095 68.417208 L 34.359397 68.142898 L 34.359397 67.415213 C 34.359397 63.15959 32.26397 61.033683 28.073114 61.033683 C 24.305155 61.033683 19.51996 62.309989 13.71753 64.862601 L 8.566588 53.105347 C 14.58237 50.004114 22.179248 48.457308 31.353411 48.457308 C 37.974963 48.457308 43.103046 50.095551 46.73385 53.379658 C 50.364655 56.659954 52.178152 61.247036 52.178152 67.140903 L 52.178152 100.999204 Z M 26.613935 89.333386 C 28.77032 89.333386 30.618107 88.65142 32.149674 87.283677 C 33.685051 85.915934 34.450834 84.136726 34.450834 81.949861 L 34.450834 77.94188 L 30.351416 78.124753 C 24.488028 78.334296 21.554429 80.494492 21.554429 84.59391 C 21.554429 87.752291 23.242201 89.333386 26.613935 89.333386 Z M 87.815662 101.909762 C 79.369184 101.909762 72.964795 99.631461 68.606305 95.074858 C 64.247816 90.518256 62.068571 83.972901 62.068571 75.434986 C 62.068571 66.866592 64.42307 60.229801 69.132067 55.520804 C 73.841064 50.811806 80.538813 48.457308 89.229123 48.457308 C 95.210617 48.457308 100.849222 49.764092 106.13351 52.373852 L 100.894941 65.544568 C 98.734745 64.60353 96.745994 63.852986 94.924877 63.289126 C 93.09995 62.729075 91.202635 62.447145 89.229123 62.447145 C 86.341243 62.447145 84.10866 63.571056 82.527565 65.818878 C 80.950279 68.066701 80.157826 71.240321 80.157826 75.343549 C 80.157826 83.607154 83.213341 87.737052 89.31675 87.737052 C 94.54389 87.737052 99.557677 86.220724 104.358111 83.180449 L 104.358111 97.35316 C 99.771029 100.393435 94.25434 101.909762 87.815662 101.909762 Z M 148.285895 100.999204 L 144.868443 94.1643 L 144.502695 94.1643 C 142.102478 97.139807 139.660352 99.178087 137.168698 100.271519 C 134.677044 101.364951 131.453896 101.909762 127.506872 101.909762 C 122.64548 101.909762 118.816562 100.454393 116.023928 97.536033 C 113.227485 94.621484 111.829263 90.518256 111.829263 85.233968 C 111.829263 79.732518 113.745627 75.640719 117.570735 72.950952 C 121.399653 70.261185 126.943011 68.752477 134.204621 68.417208 L 142.818733 68.142898 L 142.818733 67.415213 C 142.818733 63.15959 140.723306 61.033683 136.52864 61.033683 C 132.760681 61.033683 127.975486 62.309989 122.173056 64.862601 L 117.025924 53.105347 C 123.041706 50.004114 130.634774 48.457308 139.808937 48.457308 C 146.434298 48.457308 151.558572 50.095551 155.189376 53.379658 C 158.820181 56.659954 160.637488 61.247036 160.637488 67.140903 L 160.637488 100.999204 Z M 135.069461 89.333386 C 137.229656 89.333386 139.073633 88.65142 140.60901 87.283677 C 142.140577 85.915934 142.91017 84.136726 142.91017 81.949861 L 142.91017 77.94188 L 138.806942 78.124753 C 132.943554 78.334296 130.013765 80.494492 130.013765 84.59391 C 130.013765 87.752291 131.697727 89.333386 135.069461 89.333386 Z M 135.069461 89.333386 " stroke="rgb(100%, 100%, 100%)" stroke-width="3.499999" stroke-opacity="1" stroke-miterlimit="4"/></svg>