<svg xmlns="http://www.w3.org/2000/svg" xmlns:xlink="http://www.w3.org/1999/xlink" width="500" zoomAndPan="magnify" viewBox="0 0 375 374.999991" height="500" preserveAspectRatio="xMidYMid meet" version="1.0"><defs><clipPath id="id1"><path d="M 7.449219 7.449219 L 367.449219 7.449219 L 367.449219 367.449219 L 7.449219 367.449219 Z M 7.449219 7.449219 " clip-rule="nonzero"/></clipPath></defs><g clip-path="url(#id1)"><path fill="rgb(100%, 100%, 100%)" d="M 187.449219 7.449219 C 88.199219 7.449219 7.449219 88.199219 7.449219 187.449219 C 7.449219 286.703125 88.199219 367.449219 187.449219 367.449219 C 286.703125 367.449219 367.449219 286.703125 367.449219 187.449219 C 367.449219 88.199219 286.703125 7.449219 187.449219 7.449219 Z M 187.449219 355.449219 C 94.816406 355.449219 19.449219 280.085938 19.449219 187.449219 C 19.449219 94.816406 94.816406 19.449219 187.449219 19.449219 C 280.085938 19.449219 355.449219 94.816406 355.449219 187.449219 C 355.449219 280.085938 280.085938 355.449219 187.449219 355.449219 Z M 187.449219 355.449219 " fill-opacity="1" fill-rule="nonzero"/></g><path fill="rgb(100%, 100%, 100%)" d="M 244.082031 93.976562 L 131.355469 93.976562 C 131.277344 93.976562 131.210938 94.015625 131.128906 94.019531 C 131.023438 94.011719 130.917969 93.984375 130.8125 93.984375 L 57.449219 93.984375 C 54.136719 93.984375 51.449219 96.667969 51.449219 99.984375 C 51.449219 126.972656 73.40625 148.925781 100.394531 148.925781 L 117.488281 148.925781 L 106.632812 217.140625 C 106.582031 217.453125 106.558594 217.765625 106.558594 218.082031 C 106.558594 218.816406 106.601562 219.546875 106.625 220.285156 C 98.648438 230.351562 94.058594 242.023438 94.058594 254.476562 C 94.058594 292.183594 135.953125 322.867188 187.449219 322.867188 C 238.945312 322.867188 280.839844 292.1875 280.839844 254.476562 C 280.839844 242.292969 276.449219 230.855469 268.792969 220.9375 C 268.824219 219.984375 268.878906 219.039062 268.878906 218.082031 C 268.878906 217.765625 268.855469 217.449219 268.804688 217.136719 L 257.949219 148.925781 L 274.507812 148.925781 C 301.496094 148.925781 323.449219 126.96875 323.449219 99.980469 C 323.449219 96.667969 320.765625 93.980469 317.449219 93.980469 L 244.117188 93.980469 C 244.105469 93.984375 244.09375 93.976562 244.082031 93.976562 Z M 136.476562 105.976562 L 238.960938 105.976562 L 255.105469 207.410156 C 238.082031 194.292969 214.058594 186.089844 187.453125 186.089844 C 161.164062 186.089844 137.398438 194.09375 120.410156 206.9375 Z M 63.9375 105.984375 L 123.78125 105.984375 L 122.914062 111.429688 L 101.050781 111.429688 C 97.738281 111.429688 95.050781 114.117188 95.050781 117.429688 C 95.050781 120.746094 97.738281 123.429688 101.050781 123.429688 L 121.007812 123.429688 L 118.859375 136.925781 L 100.394531 136.925781 C 82.066406 136.925781 66.8125 123.511719 63.9375 105.984375 Z M 187.449219 310.867188 C 142.570312 310.867188 106.058594 285.570312 106.058594 254.476562 C 106.058594 244.179688 110.128906 234.550781 117.117188 226.230469 C 117.164062 226.179688 117.210938 226.128906 117.253906 226.074219 C 131.394531 209.363281 157.527344 198.089844 187.449219 198.089844 C 217.6875 198.089844 244.074219 209.597656 258.105469 226.601562 C 258.203125 226.714844 258.296875 226.828125 258.402344 226.9375 C 265.019531 235.089844 268.839844 244.472656 268.839844 254.476562 C 268.839844 285.570312 232.328125 310.867188 187.449219 310.867188 Z M 310.964844 105.984375 C 308.089844 123.511719 292.835938 136.925781 274.507812 136.925781 L 256.039062 136.925781 L 253.894531 123.429688 L 274.386719 123.429688 C 277.699219 123.429688 280.386719 120.746094 280.386719 117.429688 C 280.386719 114.117188 277.699219 111.429688 274.386719 111.429688 L 251.984375 111.429688 L 251.117188 105.984375 Z M 310.964844 105.984375 " fill-opacity="1" fill-rule="nonzero"/><path fill="rgb(100%, 100%, 100%)" d="M 168.691406 159.617188 C 168.691406 160.109375 168.644531 160.59375 168.546875 161.078125 C 168.453125 161.558594 168.308594 162.023438 168.121094 162.476562 C 167.933594 162.929688 167.703125 163.363281 167.429688 163.769531 C 167.160156 164.175781 166.847656 164.554688 166.503906 164.902344 C 166.15625 165.25 165.777344 165.558594 165.371094 165.832031 C 164.960938 166.101562 164.53125 166.332031 164.078125 166.519531 C 163.625 166.707031 163.160156 166.851562 162.675781 166.945312 C 162.195312 167.042969 161.710938 167.089844 161.21875 167.089844 C 160.730469 167.089844 160.242188 167.042969 159.761719 166.945312 C 159.28125 166.851562 158.8125 166.707031 158.359375 166.519531 C 157.90625 166.332031 157.476562 166.101562 157.070312 165.832031 C 156.660156 165.558594 156.285156 165.25 155.9375 164.902344 C 155.589844 164.554688 155.28125 164.175781 155.007812 163.769531 C 154.734375 163.363281 154.503906 162.929688 154.316406 162.476562 C 154.128906 162.023438 153.988281 161.558594 153.890625 161.078125 C 153.796875 160.59375 153.75 160.109375 153.75 159.617188 C 153.75 159.128906 153.796875 158.640625 153.890625 158.160156 C 153.988281 157.679688 154.128906 157.210938 154.316406 156.757812 C 154.503906 156.304688 154.734375 155.875 155.007812 155.46875 C 155.28125 155.058594 155.589844 154.683594 155.9375 154.335938 C 156.285156 153.988281 156.660156 153.679688 157.070312 153.40625 C 157.476562 153.132812 157.90625 152.902344 158.359375 152.714844 C 158.8125 152.527344 159.28125 152.386719 159.761719 152.292969 C 160.242188 152.195312 160.730469 152.148438 161.21875 152.148438 C 161.710938 152.148438 162.195312 152.195312 162.675781 152.292969 C 163.160156 152.386719 163.625 152.527344 164.078125 152.714844 C 164.53125 152.902344 164.960938 153.132812 165.371094 153.40625 C 165.777344 153.679688 166.15625 153.988281 166.503906 154.335938 C 166.847656 154.683594 167.160156 155.058594 167.429688 155.46875 C 167.703125 155.875 167.933594 156.304688 168.121094 156.757812 C 168.308594 157.210938 168.453125 157.679688 168.546875 158.160156 C 168.644531 158.640625 168.691406 159.128906 168.691406 159.617188 Z M 168.691406 159.617188 " fill-opacity="1" fill-rule="nonzero"/><path fill="rgb(100%, 100%, 100%)" d="M 221.699219 159.617188 C 221.699219 160.109375 221.652344 160.59375 221.554688 161.078125 C 221.460938 161.558594 221.320312 162.023438 221.128906 162.476562 C 220.941406 162.929688 220.714844 163.363281 220.441406 163.769531 C 220.167969 164.175781 219.859375 164.554688 219.511719 164.902344 C 219.164062 165.25 218.785156 165.558594 218.378906 165.832031 C 217.972656 166.101562 217.539062 166.332031 217.085938 166.519531 C 216.632812 166.707031 216.167969 166.851562 215.6875 166.945312 C 215.203125 167.042969 214.71875 167.089844 214.226562 167.089844 C 213.738281 167.089844 213.25 167.042969 212.769531 166.945312 C 212.289062 166.851562 211.824219 166.707031 211.371094 166.519531 C 210.914062 166.332031 210.484375 166.101562 210.078125 165.832031 C 209.667969 165.558594 209.292969 165.25 208.945312 164.902344 C 208.597656 164.554688 208.289062 164.175781 208.015625 163.769531 C 207.742188 163.363281 207.511719 162.929688 207.324219 162.476562 C 207.136719 162.023438 206.996094 161.558594 206.902344 161.078125 C 206.804688 160.59375 206.757812 160.109375 206.757812 159.617188 C 206.757812 159.128906 206.804688 158.640625 206.902344 158.160156 C 206.996094 157.679688 207.136719 157.210938 207.324219 156.757812 C 207.511719 156.304688 207.742188 155.875 208.015625 155.46875 C 208.289062 155.058594 208.597656 154.683594 208.945312 154.335938 C 209.292969 153.988281 209.667969 153.679688 210.078125 153.40625 C 210.484375 153.132812 210.914062 152.902344 211.371094 152.714844 C 211.824219 152.527344 212.289062 152.386719 212.769531 152.292969 C 213.25 152.195312 213.738281 152.148438 214.226562 152.148438 C 214.71875 152.148438 215.203125 152.195312 215.6875 152.292969 C 216.167969 152.386719 216.632812 152.527344 217.085938 152.714844 C 217.539062 152.902344 217.972656 153.132812 218.378906 153.40625 C 218.785156 153.679688 219.164062 153.988281 219.511719 154.335938 C 219.859375 154.683594 220.167969 155.058594 220.441406 155.46875 C 220.714844 155.875 220.941406 156.304688 221.128906 156.757812 C 221.320312 157.210938 221.460938 157.679688 221.554688 158.160156 C 221.652344 158.640625 221.699219 159.128906 221.699219 159.617188 Z M 221.699219 159.617188 " fill-opacity="1" fill-rule="nonzero"/><path fill="rgb(100%, 100%, 100%)" d="M 210.59375 286.054688 C 209.222656 287.398438 207.457031 288.601562 205.316406 289.632812 C 196.773438 293.8125 183.128906 294.453125 173.324219 291.160156 C 169.480469 289.863281 166.339844 288.09375 164.242188 286.042969 C 161.875 283.730469 158.074219 283.769531 155.757812 286.136719 C 153.441406 288.507812 153.484375 292.304688 155.851562 294.621094 C 159.230469 297.925781 163.945312 300.660156 169.496094 302.535156 C 174.941406 304.363281 181.148438 305.328125 187.453125 305.328125 C 195.894531 305.328125 204.109375 303.582031 210.566406 300.425781 C 213.859375 298.832031 216.699219 296.878906 219 294.613281 C 221.363281 292.289062 221.398438 288.492188 219.078125 286.128906 C 216.753906 283.761719 212.953125 283.730469 210.59375 286.054688 Z M 210.59375 286.054688 " fill-opacity="1" fill-rule="nonzero"/></svg>